<svg version="1.1" id="Layer_1" xmlns="http://www.w3.org/2000/svg" xmlns:xlink="http://www.w3.org/1999/xlink" x="0px" y="0px"
	 width="100%" viewBox="0 0 496 496" enable-background="new 0 0 496 496" xml:space="preserve">
<path fill="#000000" opacity="1.000000" stroke="none" 
	d="
M246.059998,374.368805 
	C220.892349,376.467590 198.698395,370.017456 179.658249,354.064484 
	C158.757294,336.552521 147.744141,313.922852 146.688431,286.641113 
	C145.739288,262.113525 153.336700,240.464600 169.236237,221.736755 
	C173.911636,216.229630 175.772812,209.081436 180.200851,203.335938 
	C193.862976,185.609055 212.005844,176.837143 233.972626,174.576904 
	C257.073486,172.199982 277.256653,179.281174 295.838470,192.291183 
	C297.431824,193.406769 299.350250,194.281921 299.852325,196.711746 
	C299.418060,197.097107 298.983856,197.826996 298.470764,197.887421 
	C285.189728,199.451950 276.009613,208.158463 266.545624,216.277359 
	C256.158447,225.188263 245.720383,233.876862 232.717041,238.968002 
	C214.891220,245.947250 196.720184,246.275589 178.233231,242.708572 
	C176.794861,242.431046 175.011322,242.293365 174.610794,240.523621 
	C174.053711,238.062027 176.125183,236.992722 177.688583,235.855896 
	C193.591660,224.291870 209.906387,213.410538 228.135620,205.691544 
	C217.203720,209.321838 206.825287,214.229187 196.290787,218.842438 
	C173.741226,228.717316 162.682831,247.113724 158.370605,269.899933 
	C150.758408,310.123535 171.661469,347.107788 208.343521,362.279846 
	C261.644104,384.325592 315.717712,348.171326 324.408905,295.998199 
	C326.241974,284.994232 325.404236,273.857330 322.893494,262.167450 
	C325.293640,265.225037 326.910797,270.558167 327.222717,277.567108 
	C328.837524,313.854645 315.035187,342.475891 284.125458,362.070740 
	C272.757904,369.277069 260.057800,373.339020 246.059998,374.368805 
z"/>
<path fill="#000000" opacity="1.000000" stroke="none" 
	d="
M272.492981,272.805176 
	C271.262665,271.262451 270.616516,272.442383 270.255402,273.213318 
	C268.699005,276.536072 266.948486,280.096222 267.352112,283.664276 
	C267.825104,287.845184 266.239166,288.674438 262.757782,288.384369 
	C259.169891,288.085449 255.483978,289.036957 251.364426,287.482025 
	C255.774734,279.991089 257.256317,271.692688 259.767517,263.731781 
	C260.164551,262.473083 260.513733,261.176300 260.673798,259.871216 
	C260.908325,257.959076 258.640167,255.517029 261.746002,254.243820 
	C264.850861,252.971008 268.076416,252.050186 271.440796,253.242126 
	C273.891083,254.110199 274.575836,256.091370 274.242554,258.458496 
	C273.992950,260.230927 273.532318,261.973602 273.063690,264.217834 
	C274.854126,263.684357 276.200928,263.146912 277.599243,262.890350 
	C283.208160,261.861267 287.099152,265.730865 286.065063,271.347595 
	C285.735748,273.136139 285.130341,274.885742 284.524902,276.608795 
	C283.523956,279.457306 283.567169,281.987274 286.545258,284.048615 
	C289.457520,279.611267 291.466278,274.310181 291.067322,269.592682 
	C290.591370,263.965088 293.412872,263.565155 297.035980,262.723083 
	C297.511475,262.612579 297.982574,262.483032 298.758270,262.285095 
	C296.743561,258.924561 295.926666,255.499817 299.831696,253.237656 
	C302.073517,251.938965 304.917297,251.890991 306.448090,254.554062 
	C308.626495,258.343750 305.908447,260.683197 303.012085,263.121796 
	C306.013428,265.718170 304.823914,268.679871 304.105530,271.837952 
	C302.955933,276.891510 299.387543,281.492615 301.512604,287.616058 
	C296.165527,288.955872 291.055725,288.658447 286.090179,287.959534 
	C284.254791,287.701172 282.828156,287.385010 281.027130,288.129089 
	C277.611542,289.540222 274.176941,289.616516 271.316864,286.711670 
	C268.518616,283.869629 270.065887,280.844513 271.024719,277.854828 
	C271.531799,276.273712 272.023743,274.687775 272.492981,272.805176 
z"/>
<path fill="#000000" opacity="1.000000" stroke="none" 
	d="
M167.066971,264.319702 
	C168.104141,256.034546 168.104538,255.985992 176.596542,256.056274 
	C180.082184,256.085114 183.564240,256.416962 187.050507,256.533875 
	C191.534882,256.684143 195.381271,257.967377 196.836121,262.691589 
	C198.202408,267.128204 195.226959,269.811646 191.943909,272.572723 
	C194.786102,275.879822 191.114456,280.720703 194.905731,283.966431 
	C195.098938,284.131805 194.375839,285.887024 193.702560,286.456665 
	C190.520111,289.149292 186.869766,289.850494 183.013336,288.116394 
	C179.385132,286.484955 179.320602,283.346191 180.045731,280.039185 
	C180.396637,278.438873 181.386322,276.446533 179.208893,275.741272 
	C176.545380,274.878540 176.693726,277.539551 175.900040,279.050262 
	C174.426544,281.855011 176.082489,284.528534 176.286118,288.058899 
	C170.467117,288.409119 164.918274,288.926636 158.662704,287.467560 
	C163.666626,280.172363 164.565109,272.185364 167.066971,264.319702 
M180.475174,269.304352 
	C184.574921,266.076508 184.686249,265.162903 180.983932,262.565369 
	C180.030197,264.811462 177.784760,266.645111 180.475174,269.304352 
z"/>
<path fill="#000000" opacity="1.000000" stroke="none" 
	d="
M226.928925,282.632202 
	C225.058014,288.150543 220.507797,290.478790 215.716217,288.286743 
	C213.163361,287.118866 211.155106,286.643646 208.326477,287.754425 
	C205.108017,289.018311 201.423019,289.200775 198.493561,286.448822 
	C195.548386,283.682098 196.727554,280.467926 197.417526,277.166138 
	C198.143219,273.693481 200.443024,270.468903 198.981339,266.564331 
	C198.431763,265.096222 199.953323,264.245331 201.251038,263.782227 
	C204.608856,262.583923 208.168961,261.664429 211.286835,263.897400 
	C214.698639,266.340881 212.413315,269.645294 211.818146,272.589569 
	C211.334915,274.979980 209.922348,277.169617 210.292313,281.010437 
	C213.702438,276.567505 215.442459,272.579681 214.631241,268.018829 
	C214.262375,265.945038 214.509857,264.799530 216.245667,264.019531 
	C219.034454,262.766388 221.995407,262.330109 225.011154,262.893738 
	C227.862488,263.426666 228.632874,265.499359 228.445541,268.102905 
	C228.204010,271.459686 226.969971,274.555389 225.844376,277.672699 
	C225.205444,279.442230 224.471710,281.176514 226.928925,282.632202 
z"/>
<path fill="#000000" opacity="1.000000" stroke="none" 
	d="
M241.052826,272.333435 
	C239.819382,278.956116 239.819382,278.956116 251.676743,279.855621 
	C251.181610,285.044373 247.362335,288.354187 241.246552,288.894470 
	C235.532700,289.399231 230.159622,285.924408 228.898041,280.908508 
	C227.489212,275.307190 229.615204,269.387573 234.310516,265.838074 
	C238.881393,262.382660 247.522354,261.434448 251.810715,263.972504 
	C253.929611,265.226562 255.445297,266.942474 255.164032,269.616852 
	C254.904999,272.079529 253.342896,273.546143 251.042542,274.017273 
	C248.493362,274.539368 246.525101,273.475952 245.186966,271.216736 
	C244.792557,270.550873 244.864029,269.518524 243.778473,269.305847 
	C242.249466,269.546234 241.776093,270.833130 241.052826,272.333435 
z"/>
<path fill="#000000" opacity="1.000000" stroke="none" 
	d="
M293.275543,294.763824 
	C298.698517,295.321625 299.851440,296.840179 298.759186,301.426636 
	C298.489899,302.557404 297.916504,303.675659 297.919647,304.798431 
	C297.925537,306.908905 298.788116,309.221100 295.893799,310.196198 
	C293.911377,310.864105 291.897522,311.000488 290.204346,309.611023 
	C287.909576,307.727875 288.868408,305.439209 289.690674,303.216888 
	C289.908997,302.626923 290.024750,301.999023 289.894073,301.296356 
	C288.059357,303.803436 287.495544,306.731262 287.350952,309.877289 
	C281.923004,311.419067 276.541382,309.375854 271.143860,310.440735 
	C267.946350,311.071594 266.136597,308.333374 267.387970,304.730499 
	C268.372070,301.897156 269.531982,299.068695 267.508331,296.126068 
	C269.903168,294.686249 271.844086,293.496948 273.807739,292.346436 
	C275.158722,291.554932 277.026489,290.856628 277.980774,292.077423 
	C282.220123,297.500824 287.915314,293.921051 293.275543,294.763824 
M277.076660,300.452789 
	C276.806488,302.304810 274.372620,305.430695 277.569244,305.614685 
	C281.390564,305.834747 280.187653,301.414429 281.301910,299.027802 
	C279.451874,297.932587 278.225128,298.217804 277.076660,300.452789 
z"/>
<path fill="#000000" opacity="1.000000" stroke="none" 
	d="
M243.618301,310.555267 
	C237.554489,311.293274 237.614746,307.088593 237.484665,302.960388 
	C234.896011,305.056549 236.126602,307.578766 235.589249,309.824493 
	C232.337402,310.635162 229.143204,310.714569 225.519562,309.713715 
	C227.740387,303.527863 230.028122,297.576019 230.719208,291.135773 
	C235.208450,290.205109 239.527786,290.290771 243.773041,290.688446 
	C247.846771,291.070038 249.936920,294.925903 247.726669,298.331360 
	C246.066895,300.888611 245.929031,303.262115 246.692413,305.769318 
	C247.536758,308.542450 246.570892,309.862671 243.618301,310.555267 
z"/>
<path fill="#000000" opacity="1.000000" stroke="none" 
	d="
M251.968140,296.707092 
	C254.272079,295.095337 256.478973,294.638733 258.874847,294.636841 
	C262.175659,294.634277 265.380341,294.901733 266.710236,298.517761 
	C268.091522,302.273499 266.401520,305.331848 263.757690,307.877228 
	C261.637390,309.918640 258.883392,310.849365 256.021637,310.789673 
	C252.825638,310.723022 249.568832,310.130554 248.276535,306.550903 
	C246.821884,302.521576 248.676804,299.502136 251.968140,296.707092 
z"/>
<path fill="#000000" opacity="1.000000" stroke="none" 
	d="
M300.198059,300.412903 
	C302.832855,295.902649 306.650452,294.494232 311.278931,294.659546 
	C317.478699,294.880981 320.161713,299.240234 317.502869,304.826019 
	C314.965332,310.156891 307.178619,312.561005 302.152618,309.523102 
	C298.531952,307.334625 299.065002,304.082123 300.198059,300.412903 
z"/>
</svg>